<svg role="img" viewBox="0 0 24 24" xmlns="http://www.w3.org/2000/svg"><title>C</title><path d="M 22.394,6 C 22.227,5.71 21.996,5.457 21.742,5.31 L 12.926,0.22 c -0.509,-0.294 -1.34,-0.294 -1.848,0 L 2.26,5.31 C 1.752,5.603 1.337,6.323 1.337,6.91 v 10.18 c 0,0.294 0.104,0.62 0.271,0.91 0.167,0.29 0.398,0.543 0.652,0.69 l 8.816,5.09 c 0.508,0.293 1.34,0.293 1.848,0 l 8.816,-5.09 c 0.254,-0.147 0.485,-0.4 0.652,-0.69 0.167,-0.29 0.27,-0.616 0.27,-0.91 V 6.91 C 22.665,6.616 22.562,6.29 22.394,6 Z M 12,19.11 c -3.92,0 -7.109,-3.19 -7.109,-7.11 0,-3.92 3.19,-7.11 7.11,-7.11 2.537964,0.00482 4.882217,1.357832 6.156,3.553 l -3.076,1.78 C 14.44456,9.1235278 13.271389,8.4455263 12.001,8.443 10.037209,8.4446542 8.4456542,10.036209 8.444,12 c 0.00276,1.96262 1.593379,3.552797 3.556,3.555 1.269813,-0.0027 2.442605,-0.679747 3.08,-1.778 l 3.078,1.78 C 16.883558,17.752485 14.538569,19.10548 12,19.11 Z"/></svg>