<svg xmlns="http://www.w3.org/2000/svg" height="40" viewBox="0 -960 960 960" width="40"><path d="M134.825-25.492v-66.666h690.35v66.666h-690.35Zm0-842.35v-66.666h690.35v66.666h-690.35Zm345.131 432.147q51.928 0 87.204-34.949 35.275-34.948 35.275-86.877 0-51.928-35.231-87.204Q531.973-680 480.044-680q-51.928 0-87.204 35.231-35.275 35.231-35.275 87.16 0 51.928 35.231 86.921 35.231 34.993 87.16 34.993ZM148.304-145.492q-36.439 0-62.292-25.853t-25.853-62.293v-492.724q0-37.773 25.853-62.96 25.853-25.186 62.292-25.186h663.392q36.439 0 62.292 25.853t25.853 62.293v492.724q0 36.44-25.853 62.293t-62.292 25.853H148.304Zm68.058-81.174h527.276q-44.652-61.609-116.102-96.29Q556.087-357.638 480-357.638q-76.754 0-147.203 34.682-70.45 34.681-116.435 96.29Z"/></svg>