<svg xmlns="http://www.w3.org/2000/svg" viewBox="0 -960 960 960"><path d="M441.696-273.029h80.609V-520h-80.609v246.971Zm38.325-313.55q19.03 0 31.881-12.675 12.852-12.675 12.852-31.412 0-19.728-12.863-32.574-12.864-12.847-31.879-12.847-19.44 0-32.103 12.847-12.663 12.846-12.663 32.385 0 18.973 12.873 31.624 12.873 12.652 31.902 12.652Zm.208 522.406q-86.643 0-162.306-32.584Q242.26-129.34 185.8-185.8q-56.46-56.46-89.043-132.121-32.584-75.661-32.584-162.36 0-86.7 32.584-162.413 32.583-75.712 88.984-131.859 56.401-56.146 132.089-88.899 75.689-32.752 162.42-32.752t162.488 32.723q75.758 32.723 131.876 88.82 56.118 56.096 88.854 131.93 32.736 75.835 32.736 162.554 0 86.695-32.752 162.352-32.753 75.656-88.899 131.948-56.147 56.291-131.914 88.998-75.767 32.706-162.41 32.706Z" /></svg>