<svg xmlns="http://www.w3.org/2000/svg" height="40" viewBox="0 -960 960 960" width="40"><path d="M228.449-268.971q58.624-38.913 119.87-59.137Q409.565-348.333 480-348.333t132.674 20.884q62.239 20.884 119.544 58.666 39.681-50.232 57.572-101.484Q807.681-421.518 807.681-480q0-138.079-94.782-232.88-94.782-94.801-232.833-94.801-138.052 0-232.899 94.801-94.848 94.801-94.848 232.88 0 58.261 17.952 109.422 17.952 51.162 58.178 101.607Zm251.427-173.362q-60.153 0-100.898-40.805-40.746-40.806-40.746-100.711t40.87-100.869q40.869-40.963 101.022-40.963 60.153 0 100.898 41.087 40.746 41.088 40.746 100.993 0 59.905-40.87 100.586-40.869 40.682-101.022 40.682Zm-.146 378.16q-85.924 0-161.88-32.643-75.957-32.643-132.462-89.339-56.505-56.696-88.86-132.355-32.355-75.658-32.355-161.782 0-86.124 32.725-161.843 32.725-75.72 89.319-131.981 56.594-56.261 132.279-89.175 75.684-32.913 161.837-32.913 86.153 0 161.838 32.913 75.684 32.914 131.945 89.175 56.261 56.261 89.175 132.051 32.913 75.791 32.913 161.888 0 86.096-32.913 161.731-32.914 75.635-89.175 132.229-56.261 56.594-132.137 89.32-75.877 32.724-162.249 32.724Z"/></svg>