<svg xmlns="http://www.w3.org/2000/svg" viewBox="0 -960 960 960"><path d="M72.187-552.073 246.593-727.61q18.334-18.333 42.421-25.369 24.087-7.037 50.116-2.283l70.552 13Q352-675.827 316.174-616.783q-35.826 59.043-69.16 139.449L72.187-552.073Zm226.175 94.754q33.769-83.218 77.189-150.849 43.421-67.63 97.319-121.529 87.435-87.435 204.768-130.935 117.334-43.5 223.059-27.63 16.246 106.102-26.754 223.247-43 117.145-130.435 204.58-54.13 54.13-122.239 97.79-68.109 43.659-150.95 77.428L298.362-457.319Zm301.697-130.305q20.246 20.246 49.572 20.246 29.326 0 49.572-20.246 19.87-20.246 19.87-49.29 0-29.043-19.87-49.289-20.246-19.87-49.572-19.87-29.326 0-49.572 19.87-19.87 20.246-19.87 49.289 0 29.044 19.87 49.29ZM565.508-59.753l-75.74-174.827q80.406-32.956 139.334-68.971t125.74-93.319l12.855 70.74q5.13 26.029-2.094 50.239-7.225 24.211-25.559 42.167L565.508-59.753ZM141.84-317.246q39.522-39.522 95.362-39.551 55.841-.029 95.363 39.116 39.145 39.522 39.334 95.363.188 55.841-39.334 95.362-29.812 29.812-95.493 49.407Q171.39-57.955 60.057-45.173 72.839-156.506 92.434-221.97q19.594-65.465 49.406-95.276Z" /></svg>