<svg xmlns="http://www.w3.org/2000/svg" height="40" viewBox="0 -960 960 960" width="40"><path d="M577.74-84.26q-26.073 26.073-63.073 26.073T451.594-84.26L84.26-451.594q-13.536-13.536-19.638-29.638-6.101-16.101-6.101-34.101v-298.001q0-37.188 25.478-62.855 25.479-25.667 62.667-25.667h298.001q18 0 34.768 6.29t30.305 19.826l366 365.769q26.739 26.739 26.739 63.855T875.74-382.26l-298 298ZM250-656q22.333 0 38.5-16.167 16.166-16.167 16.166-38.5t-16.166-38.5q-16.167-16.166-38.5-16.166-22.334 0-38.5 16.166-16.167 16.167-16.167 38.5t16.167 38.5Q227.666-656 250-656Z"/></svg>