<svg xmlns="http://www.w3.org/2000/svg" height="40" viewBox="0 -960 960 960" width="40"><path d="M477.268-104.173q-152.515 0-260.614-105.234-108.099-105.234-112.379-257.927h88.623q5.289 115.664 86.85 195.34 81.561 79.675 197.498 79.675 120.841 0 205.261-84.831 84.421-84.831 84.421-206.116 0-119.285-84.851-201.85t-204.831-82.565q-63.057 0-118.956 27.282-55.898 27.282-97.203 74.297h93.478v74.768H122.609V-821.87h73.637v95.029q53.739-60.87 126.471-95.116 72.732-34.247 154.529-34.247 78.015 0 146.769 29.58 68.753 29.58 120.272 80.345 51.518 50.765 81.152 118.848t29.634 146.098q0 78.014-29.634 146.764-29.634 68.75-81.152 119.848-51.519 51.098-120.272 80.823-68.754 29.725-146.747 29.725Zm120.196-207.392-153.333-152V-682h73.637v187.333l132.681 130.116-52.985 52.986Z"/></svg>